<svg xmlns="http://www.w3.org/2000/svg" width="1024" height="1024" viewBox="0 0 1024 1024">
<path fill="#E4EDC6" fill-rule="evenodd" d="M382.2,285.2 L380.3,285.4 L378.5,285.7 L376.7,286.1 L374.9,286.5 L373.0,286.9 L371.2,287.4 L369.4,288.0 L367.5,288.6 L365.7,289.2 L363.9,289.9 L362.1,290.7 L360.2,291.5 L358.4,292.4 L356.6,293.3 L354.7,294.3 L352.9,295.4 L351.6,296.2 L349.3,297.8 L347.4,299.1 L346.4,299.9 L344.1,301.7 L342.0,303.5 L340.1,305.3 L338.3,307.1 L336.5,309.0 L334.9,310.9 L333.4,312.7 L332.0,314.5 L331.0,315.9 L329.4,318.2 L328.3,320.0 L327.3,321.6 L326.2,323.7 L325.5,325.0 L324.3,327.3 L323.7,328.8 L322.7,331.0 L322.0,332.8 L321.4,334.6 L320.7,336.5 L320.2,338.3 L319.7,340.1 L319.2,341.9 L318.8,343.8 L318.4,345.6 L318.2,347.2 L317.8,349.3 L317.6,351.1 L317.4,352.9 L317.3,354.7 L317.2,356.6 L317.1,358.4 L317.1,360.2 L317.1,362.1 L317.2,363.9 L317.3,365.7 L317.4,367.5 L317.6,369.4 L317.8,371.2 L318.0,373.0 L318.3,374.9 L318.6,376.7 L318.9,378.5 L319.3,380.3 L319.7,382.2 L320.0,383.4 L320.6,385.8 L321.1,387.7 L321.7,389.5 L322.3,391.3 L322.9,393.1 L323.5,395.0 L324.2,396.8 L324.9,398.6 L325.5,400.1 L326.4,402.3 L327.2,404.1 L328.0,405.9 L328.8,407.8 L329.6,409.6 L330.5,411.4 L331.0,412.5 L332.2,415.1 L332.8,416.4 L333.9,418.7 L334.6,420.3 L335.6,422.4 L336.4,424.2 L337.2,426.1 L337.9,427.9 L338.7,429.7 L339.4,431.5 L340.0,433.4 L340.6,435.2 L341.2,437.0 L341.8,438.9 L342.2,440.7 L342.7,442.5 L343.1,444.3 L343.4,446.2 L343.8,448.0 L344.0,449.8 L344.2,451.7 L344.4,453.5 L344.5,455.3 L344.6,457.1 L344.7,459.0 L344.6,460.8 L344.6,462.6 L344.5,464.5 L344.4,466.3 L344.2,468.1 L344.0,469.9 L343.8,471.5 L343.4,473.6 L343.0,475.4 L342.6,477.3 L342.2,479.1 L341.7,480.9 L341.1,482.7 L340.5,484.6 L339.8,486.4 L339.1,488.2 L338.3,490.1 L337.5,491.9 L336.6,493.7 L335.7,495.5 L334.7,497.4 L333.7,499.2 L332.8,500.9 L331.6,502.9 L331.0,504.0 L329.4,506.5 L328.3,508.3 L327.3,509.9 L326.0,512.0 L324.8,513.8 L323.7,515.7 L322.5,517.5 L321.8,518.6 L320.3,521.1 L319.2,523.0 L318.2,524.7 L317.1,526.6 L316.3,527.9 L315.0,530.3 L314.1,532.1 L313.1,533.9 L312.2,535.8 L311.3,537.6 L310.5,539.4 L309.6,541.3 L309.0,542.7 L308.1,544.9 L307.4,546.7 L306.7,548.6 L306.0,550.4 L305.4,552.2 L304.8,554.1 L304.2,555.9 L303.7,557.7 L303.2,559.5 L302.7,561.4 L302.3,563.2 L301.9,565.0 L301.5,566.9 L301.2,568.7 L300.8,570.5 L300.6,572.3 L300.3,574.2 L300.1,576.0 L299.9,577.8 L299.8,579.7 L299.6,581.5 L299.5,583.3 L299.5,585.1 L299.4,587.0 L299.4,588.8 L299.5,590.6 L299.5,592.5 L299.6,594.3 L299.7,596.1 L299.9,597.8 L300.1,599.8 L300.3,601.6 L300.5,603.4 L300.8,605.3 L301.1,607.1 L301.5,608.9 L301.7,610.1 L302.2,612.6 L302.7,614.4 L303.1,616.2 L303.5,617.7 L304.2,619.9 L304.7,621.7 L305.3,623.5 L305.9,625.4 L306.6,627.2 L307.2,628.8 L308.0,630.9 L308.8,632.7 L309.6,634.5 L310.4,636.3 L311.2,638.2 L312.1,640.0 L312.7,641.1 L314.0,643.7 L314.9,645.5 L315.9,647.3 L317.0,649.1 L318.0,651.0 L319.1,652.8 L320.0,654.3 L321.3,656.5 L322.4,658.3 L323.6,660.1 L324.7,661.9 L325.5,663.2 L327.0,665.6 L328.2,667.4 L329.1,669.0 L330.4,671.1 L331.6,672.9 L332.6,674.7 L333.7,676.6 L334.6,678.3 L335.7,680.2 L336.5,681.8 L337.5,683.9 L338.3,685.6 L339.1,687.5 L339.8,689.4 L340.5,691.2 L341.1,693.0 L341.7,694.9 L342.2,696.7 L342.7,698.5 L343.1,700.3 L343.5,702.2 L343.8,703.8 L344.1,705.8 L344.3,707.7 L344.5,709.5 L344.6,711.3 L344.7,713.1 L344.8,715.0 L344.8,716.8 L344.8,718.6 L344.7,720.5 L344.6,722.3 L344.4,724.1 L344.2,725.9 L343.9,727.8 L343.6,729.6 L343.3,731.4 L342.9,733.3 L342.5,735.1 L342.0,736.9 L341.4,738.7 L340.9,740.6 L340.3,742.4 L339.6,744.2 L338.9,746.1 L338.3,747.6 L337.4,749.7 L336.6,751.5 L335.8,753.4 L335.0,755.2 L334.1,757.0 L333.3,758.9 L332.4,760.7 L331.6,762.5 L331.0,763.8 L329.9,766.2 L329.1,767.7 L328.2,769.8 L327.4,771.7 L326.6,773.5 L325.9,775.3 L325.1,777.1 L324.4,779.0 L323.7,780.8 L323.1,782.6 L322.5,784.5 L321.9,786.3 L321.3,788.1 L320.8,789.9 L320.3,791.8 L320.0,793.0 L319.4,795.4 L319.0,797.3 L318.7,799.1 L318.4,800.9 L318.2,802.4 L317.9,804.6 L317.7,806.4 L317.5,808.2 L317.4,810.1 L317.3,811.9 L317.2,813.7 L317.2,815.5 L317.2,817.4 L317.3,819.2 L317.4,821.0 L317.5,822.9 L317.7,824.7 L317.9,826.5 L318.2,828.3 L318.5,830.2 L318.8,832.0 L319.2,833.8 L319.7,835.7 L320.2,837.5 L320.8,839.3 L321.4,841.1 L321.8,842.4 L322.7,844.8 L323.5,846.6 L324.3,848.5 L325.2,850.3 L326.1,852.1 L327.2,853.9 L328.2,855.8 L329.1,857.2 L330.6,859.4 L331.9,861.3 L332.8,862.4 L334.6,864.7 L336.4,866.7 L338.1,868.6 L339.9,870.4 L341.9,872.2 L343.8,873.9 L345.6,875.4 L347.4,876.8 L348.7,877.7 L351.1,879.3 L352.9,880.5 L354.4,881.4 L356.6,882.6 L357.8,883.2 L360.2,884.4 L361.7,885.0 L363.9,886.0 L365.7,886.7 L367.5,887.3 L369.4,887.9 L371.2,888.5 L373.0,888.9 L374.9,889.4 L376.7,889.8 L378.5,890.1 L380.3,890.4 L382.2,890.7 L384.0,890.9 L385.8,891.0 L387.7,891.2 L389.5,891.2 L391.3,891.2 L393.1,891.2 L395.0,891.2 L396.8,891.0 L398.6,890.9 L400.5,890.7 L402.3,890.4 L404.1,890.1 L405.9,889.8 L407.8,889.4 L409.6,889.0 L411.4,888.5 L413.3,888.0 L415.1,887.4 L416.6,886.9 L418.7,886.1 L420.6,885.3 L422.4,884.5 L424.2,883.7 L426.1,882.7 L427.9,881.8 L429.7,880.7 L431.5,879.6 L433.4,878.4 L434.4,877.7 L437.0,875.9 L438.9,874.4 L440.7,872.9 L442.5,871.3 L443.5,870.4 L445.4,868.6 L447.2,866.7 L448.0,865.9 L448.8,864.9 L449.8,863.8 L451.7,861.6 L453.3,859.4 L454.6,857.6 L455.3,856.6 L457.0,853.9 L458.1,852.1 L459.0,850.7 L460.2,848.5 L460.8,847.2 L462.0,844.8 L462.6,843.4 L463.6,841.1 L464.3,839.3 L465.0,837.5 L465.7,835.7 L466.2,833.8 L466.8,832.0 L467.3,830.2 L467.8,828.3 L468.1,827.0 L468.6,824.7 L469.0,822.9 L469.3,821.0 L469.6,819.2 L469.9,817.4 L470.1,815.5 L470.3,813.7 L470.5,811.9 L470.6,810.1 L470.7,808.2 L470.8,806.4 L470.9,804.6 L471.0,802.7 L471.0,800.9 L471.0,799.1 L471.0,797.3 L471.0,795.4 L470.9,793.6 L470.9,791.8 L470.8,789.9 L470.7,788.1 L470.6,786.3 L470.5,784.5 L470.4,782.6 L470.2,780.8 L470.1,779.0 L470.0,777.1 L469.8,775.3 L469.7,773.5 L469.6,771.7 L469.5,769.8 L469.5,768.0 L469.5,766.2 L469.5,764.3 L469.6,762.5 L469.8,760.7 L470.1,758.9 L470.6,757.0 L471.3,755.2 L472.6,753.4 L473.6,752.4 L475.3,751.5 L477.3,751.0 L479.1,750.9 L480.9,751.1 L482.7,751.3 L484.6,751.7 L486.4,752.2 L488.2,752.7 L490.1,753.3 L491.9,754.0 L493.7,754.6 L495.3,755.2 L497.4,756.0 L499.2,756.6 L501.0,757.3 L502.9,758.0 L504.7,758.7 L506.5,759.4 L508.3,760.1 L510.0,760.7 L512.0,761.4 L513.8,762.0 L515.2,762.5 L517.5,763.3 L519.3,763.9 L520.9,764.3 L523.0,765.0 L524.8,765.5 L526.6,766.0 L528.5,766.5 L530.3,766.9 L532.1,767.4 L533.9,767.8 L535.8,768.2 L537.6,768.6 L539.4,769.0 L541.3,769.3 L543.1,769.6 L544.9,770.0 L546.7,770.3 L548.6,770.6 L550.4,770.9 L552.2,771.1 L554.1,771.4 L555.8,771.7 L557.7,771.9 L559.5,772.2 L561.4,772.5 L563.2,772.8 L565.0,773.1 L566.9,773.4 L568.7,773.7 L570.5,774.1 L572.3,774.5 L574.2,774.9 L576.0,775.3 L577.8,775.8 L579.7,776.4 L581.5,777.0 L583.3,777.6 L585.1,778.3 L586.8,779.0 L588.8,779.9 L590.6,780.8 L592.5,781.7 L594.1,782.6 L596.1,783.8 L597.9,785.0 L599.8,786.2 L601.6,787.6 L603.4,789.0 L604.6,789.9 L606.7,791.8 L608.6,793.6 L610.4,795.4 L612.1,797.3 L613.7,799.1 L615.2,800.9 L616.2,802.3 L617.9,804.6 L619.1,806.4 L619.9,807.5 L621.4,810.1 L622.5,811.9 L623.5,813.7 L624.5,815.5 L625.4,817.2 L626.4,819.2 L627.2,820.8 L628.2,822.9 L629.0,824.5 L630.0,826.5 L630.9,828.1 L631.9,830.2 L632.7,831.6 L633.8,833.8 L634.5,835.0 L635.9,837.5 L637.0,839.3 L638.1,841.1 L639.3,843.0 L640.0,844.1 L641.8,846.6 L643.1,848.5 L644.5,850.3 L645.5,851.5 L647.3,853.7 L649.1,855.7 L650.9,857.6 L652.8,859.4 L654.6,861.1 L656.5,862.7 L658.3,864.2 L660.1,865.6 L661.6,866.7 L663.8,868.2 L665.6,869.4 L667.4,870.4 L669.3,871.5 L670.8,872.2 L672.9,873.2 L674.7,874.0 L676.6,874.8 L678.4,875.4 L679.8,875.9 L682.1,876.6 L683.9,877.1 L685.7,877.5 L687.5,877.9 L689.4,878.2 L691.2,878.5 L693.0,878.7 L694.9,878.9 L696.7,879.0 L698.5,879.1 L700.3,879.1 L702.2,879.1 L704.0,879.0 L705.8,878.9 L707.7,878.7 L709.5,878.4 L711.3,878.1 L713.1,877.8 L715.0,877.4 L716.8,876.9 L718.6,876.4 L720.2,875.9 L722.3,875.2 L724.1,874.5 L725.9,873.7 L727.8,872.9 L729.1,872.2 L731.4,871.0 L733.3,869.9 L735.1,868.8 L736.9,867.6 L738.1,866.7 L740.5,864.9 L742.4,863.3 L744.2,861.6 L746.1,859.8 L747.9,857.9 L749.7,855.8 L751.2,853.9 L752.5,852.1 L753.4,850.9 L754.9,848.5 L756.0,846.6 L757.0,844.8 L757.9,843.0 L758.8,841.1 L759.6,839.3 L760.3,837.5 L760.7,836.3 L761.5,833.8 L762.0,832.0 L762.5,830.2 L762.9,828.3 L763.3,826.5 L763.6,824.7 L763.9,822.9 L764.0,821.0 L764.2,819.2 L764.3,817.4 L764.3,815.5 L764.3,813.7 L764.2,811.9 L764.1,810.1 L764.0,808.2 L763.7,806.4 L763.5,804.6 L763.1,802.7 L762.7,800.9 L762.3,799.1 L761.8,797.3 L761.3,795.4 L760.7,793.7 L760.0,791.8 L759.2,789.9 L758.4,788.1 L757.6,786.3 L756.6,784.5 L755.6,782.6 L754.5,780.8 L753.4,779.0 L752.1,777.1 L750.7,775.3 L749.7,774.0 L747.9,771.9 L746.1,769.9 L744.2,768.1 L742.4,766.3 L740.6,764.8 L738.7,763.2 L737.8,762.5 L735.3,760.7 L733.3,759.3 L731.4,758.1 L729.7,757.0 L727.8,755.9 L726.5,755.2 L724.1,753.9 L722.9,753.4 L720.5,752.2 L718.9,751.5 L716.8,750.6 L715.0,749.9 L713.1,749.2 L711.3,748.6 L709.5,748.0 L707.7,747.4 L705.8,746.8 L704.0,746.3 L702.2,745.7 L700.3,745.2 L698.5,744.7 L696.7,744.3 L694.9,743.8 L693.0,743.3 L691.2,742.8 L689.7,742.4 L687.5,741.8 L685.7,741.3 L683.9,740.7 L682.1,740.1 L680.2,739.5 L678.4,738.9 L676.6,738.2 L674.7,737.5 L673.4,736.9 L671.1,735.8 L669.5,735.1 L667.4,734.0 L666.1,733.3 L663.8,731.9 L661.9,730.7 L660.2,729.6 L658.3,728.2 L656.5,726.8 L655.4,725.9 L653.2,724.1 L651.1,722.3 L649.2,720.5 L647.5,718.6 L645.8,716.8 L644.2,715.0 L642.8,713.1 L641.8,711.9 L640.1,709.5 L638.9,707.7 L638.2,706.5 L636.7,704.0 L635.7,702.2 L634.7,700.3 L633.8,698.5 L632.9,696.7 L632.0,694.9 L631.2,693.0 L630.4,691.2 L629.6,689.4 L629.0,688.0 L628.1,685.7 L627.3,683.9 L626.6,682.1 L625.8,680.2 L625.0,678.4 L624.2,676.6 L623.5,675.1 L622.6,672.9 L621.7,671.2 L620.8,669.3 L619.9,667.5 L618.9,665.6 L618.1,664.0 L616.9,661.9 L616.2,660.8 L614.7,658.3 L613.6,656.5 L612.6,655.0 L611.1,652.8 L609.8,651.0 L608.9,649.8 L607.1,647.4 L605.5,645.5 L603.9,643.7 L602.3,641.8 L600.6,640.0 L598.8,638.2 L597.9,637.3 L596.9,636.3 L594.9,634.5 L592.8,632.7 L590.6,630.9 L588.8,629.4 L587.0,628.0 L585.8,627.2 L583.3,625.4 L581.5,624.2 L579.7,623.0 L577.8,621.8 L576.0,620.6 L574.7,619.9 L572.3,618.5 L570.5,617.4 L568.7,616.4 L566.9,615.3 L565.2,614.4 L563.2,613.3 L561.9,612.6 L559.5,611.3 L557.7,610.3 L555.9,609.2 L554.1,608.2 L552.2,607.1 L550.4,605.9 L549.3,605.3 L546.7,603.5 L544.9,602.1 L543.1,600.6 L542.2,599.8 L541.3,598.9 L540.4,597.9 L539.4,596.9 L537.6,594.4 L536.5,592.5 L535.8,590.9 L535.0,588.8 L534.6,587.0 L534.5,585.1 L534.5,583.3 L534.7,581.5 L535.1,579.7 L535.8,577.8 L536.6,576.0 L537.6,574.3 L539.0,572.3 L540.6,570.5 L542.4,568.7 L544.5,566.9 L546.7,565.2 L548.6,563.9 L549.6,563.2 L552.2,561.5 L554.1,560.4 L555.5,559.5 L557.7,558.3 L559.5,557.3 L561.4,556.2 L563.2,555.2 L565.0,554.2 L566.9,553.2 L568.5,552.2 L570.5,551.1 L571.7,550.4 L574.2,548.9 L576.0,547.8 L577.7,546.7 L579.7,545.5 L581.5,544.3 L583.2,543.1 L585.1,541.8 L587.0,540.4 L588.3,539.4 L590.6,537.6 L592.5,536.1 L594.3,534.5 L596.1,532.9 L597.9,531.2 L598.8,530.3 L599.8,529.4 L600.6,528.5 L601.6,527.5 L603.4,525.5 L605.3,523.4 L607.1,521.1 L608.5,519.3 L609.9,517.5 L610.7,516.4 L612.5,513.8 L613.7,512.0 L614.4,511.0 L616.0,508.3 L617.1,506.5 L618.1,504.9 L619.2,502.9 L619.9,501.5 L621.1,499.2 L621.7,497.9 L622.9,495.5 L623.5,494.1 L624.6,491.9 L625.4,490.1 L626.2,488.2 L627.0,486.4 L627.8,484.6 L628.6,482.7 L629.4,480.9 L630.2,479.1 L630.9,477.6 L631.9,475.4 L632.7,473.7 L633.6,471.8 L634.5,470.0 L635.5,468.1 L636.3,466.7 L637.7,464.5 L638.8,462.6 L640.0,460.8 L641.3,459.0 L642.7,457.1 L643.7,456.0 L645.5,453.9 L647.3,451.9 L649.1,450.1 L651.0,448.3 L652.8,446.8 L654.6,445.3 L655.8,444.3 L658.3,442.5 L660.1,441.3 L661.9,440.2 L663.8,439.1 L665.6,438.1 L667.4,437.2 L669.3,436.3 L671.1,435.5 L672.9,434.7 L674.7,434.0 L676.4,433.4 L678.4,432.7 L680.2,432.1 L681.9,431.5 L683.9,431.0 L685.7,430.4 L687.5,429.9 L689.4,429.4 L691.2,428.9 L693.0,428.4 L694.8,427.9 L696.7,427.4 L698.5,426.9 L700.3,426.3 L702.2,425.7 L704.0,425.2 L705.8,424.6 L707.7,423.9 L709.5,423.3 L711.3,422.6 L713.1,421.8 L715.0,421.1 L716.8,420.2 L718.6,419.4 L719.9,418.7 L722.3,417.5 L723.4,416.9 L725.9,415.5 L727.8,414.3 L729.4,413.3 L731.4,411.9 L733.3,410.5 L734.5,409.6 L736.7,407.8 L738.7,406.0 L740.6,404.3 L742.4,402.4 L744.2,400.5 L745.8,398.6 L747.2,396.8 L748.5,395.0 L749.7,393.2 L751.0,391.3 L752.0,389.5 L753.0,387.7 L754.0,385.8 L754.8,384.0 L755.6,382.2 L756.4,380.3 L757.0,378.5 L757.6,376.7 L758.2,374.9 L758.7,373.0 L759.1,371.2 L759.5,369.4 L759.8,367.5 L760.1,365.7 L760.3,363.9 L760.5,362.1 L760.6,360.2 L760.6,358.4 L760.6,356.6 L760.6,354.7 L760.5,352.9 L760.3,351.1 L760.2,349.3 L759.9,347.4 L759.6,345.6 L759.2,343.8 L758.9,342.2 L758.3,340.1 L757.8,338.3 L757.2,336.5 L756.6,334.6 L755.8,332.8 L755.2,331.3 L754.2,329.1 L753.4,327.5 L752.3,325.5 L751.5,324.2 L750.0,321.8 L748.8,320.0 L747.9,318.8 L746.1,316.4 L744.4,314.5 L742.7,312.7 L740.9,310.9 L738.9,309.0 L736.9,307.4 L735.1,305.9 L733.3,304.6 L731.7,303.5 L729.6,302.2 L727.8,301.2 L725.9,300.2 L724.1,299.3 L722.3,298.4 L720.5,297.7 L718.6,297.0 L716.8,296.3 L715.0,295.7 L713.1,295.2 L711.3,294.7 L709.7,294.4 L707.7,294.0 L705.8,293.7 L704.0,293.4 L702.2,293.2 L700.3,293.1 L698.5,293.0 L696.7,293.0 L694.9,293.0 L693.0,293.0 L691.2,293.2 L689.4,293.3 L687.5,293.5 L685.7,293.8 L683.9,294.1 L682.7,294.4 L680.2,294.9 L678.4,295.4 L676.6,296.0 L674.7,296.6 L672.9,297.2 L671.1,297.9 L669.3,298.7 L667.4,299.6 L665.6,300.5 L663.8,301.5 L661.9,302.5 L660.3,303.5 L658.3,304.9 L656.5,306.2 L655.1,307.2 L652.9,309.0 L651.0,310.6 L649.1,312.3 L647.3,314.1 L645.5,315.9 L643.7,317.9 L641.9,320.0 L640.4,321.8 L638.9,323.7 L638.2,324.7 L636.3,327.3 L635.1,329.1 L633.9,331.0 L632.7,332.8 L631.6,334.6 L630.9,336.0 L629.5,338.3 L628.5,340.1 L627.5,341.9 L626.6,343.8 L625.6,345.6 L624.7,347.4 L623.7,349.3 L622.8,351.1 L621.8,352.9 L620.8,354.7 L619.9,356.4 L618.7,358.4 L618.1,359.6 L616.5,362.1 L615.3,363.9 L614.4,365.3 L612.7,367.5 L611.3,369.4 L609.8,371.2 L608.9,372.2 L607.1,374.2 L605.3,376.0 L603.4,377.7 L602.5,378.5 L600.3,380.3 L597.9,382.1 L596.1,383.4 L594.3,384.6 L592.5,385.7 L590.6,386.7 L588.8,387.6 L587.0,388.5 L585.1,389.3 L583.3,390.0 L581.5,390.7 L579.8,391.3 L577.8,391.9 L576.0,392.5 L574.2,393.0 L572.3,393.4 L570.5,393.8 L568.7,394.2 L566.9,394.5 L565.0,394.9 L563.2,395.2 L561.4,395.5 L559.5,395.8 L557.7,396.1 L555.9,396.4 L554.1,396.7 L552.2,396.9 L550.4,397.2 L548.6,397.5 L546.7,397.8 L544.9,398.1 L543.1,398.5 L541.3,398.8 L539.4,399.1 L537.6,399.5 L535.8,399.9 L533.9,400.3 L532.1,400.7 L530.3,401.1 L528.5,401.6 L526.6,402.1 L524.8,402.6 L523.0,403.1 L521.1,403.6 L519.4,404.1 L517.5,404.7 L515.7,405.3 L513.8,405.9 L512.0,406.5 L510.2,407.1 L508.3,407.7 L506.5,408.3 L504.7,409.0 L502.9,409.6 L501.0,410.2 L499.2,410.8 L497.4,411.4 L495.5,412.0 L493.7,412.5 L491.9,413.0 L490.6,413.3 L488.2,413.7 L486.4,414.0 L484.6,414.1 L482.7,414.0 L480.9,413.6 L479.1,412.8 L477.4,411.4 L476.1,409.6 L475.4,408.4 L474.6,405.9 L474.2,404.1 L473.8,402.3 L473.6,400.5 L473.4,398.6 L473.3,396.8 L473.2,395.0 L473.1,393.1 L473.1,391.3 L473.0,389.5 L473.0,387.7 L472.9,385.8 L472.9,384.0 L472.8,382.2 L472.8,380.3 L472.7,378.5 L472.6,376.7 L472.5,374.9 L472.4,373.0 L472.3,371.2 L472.2,369.4 L472.0,367.5 L471.8,365.7 L471.6,363.9 L471.4,362.1 L471.1,360.2 L470.9,358.4 L470.6,356.6 L470.2,354.7 L469.9,353.4 L469.5,351.1 L469.0,349.3 L468.5,347.4 L468.1,345.9 L467.5,343.8 L466.9,341.9 L466.3,340.2 L465.6,338.3 L464.9,336.5 L464.1,334.6 L463.3,332.8 L462.6,331.3 L461.6,329.1 L460.8,327.7 L459.6,325.5 L459.0,324.4 L457.4,321.8 L456.2,320.0 L455.3,318.7 L453.6,316.3 L452.2,314.5 L450.7,312.7 L449.8,311.7 L448.0,309.6 L446.2,307.7 L444.3,306.0 L442.5,304.3 L440.7,302.7 L439.5,301.7 L437.1,299.9 L435.2,298.5 L433.4,297.3 L431.7,296.2 L429.7,295.0 L428.6,294.4 L426.1,293.0 L424.2,292.1 L422.4,291.3 L421.2,290.7 L418.7,289.7 L416.9,289.1 L415.1,288.4 L413.3,287.8 L411.4,287.3 L409.6,286.8 L407.8,286.4 L405.9,286.0 L404.1,285.7 L402.3,285.4 L400.5,285.2 L398.6,285.0 L396.8,284.8 L395.0,284.7 L393.1,284.6 L391.3,284.6 L389.5,284.6 L387.7,284.7 L385.8,284.8 L384.0,285.0 Z M378.5,301.5 L376.7,301.9 L374.9,302.4 L373.0,303.0 L371.5,303.5 L369.4,304.3 L367.5,305.1 L365.7,305.9 L363.9,306.9 L362.1,307.9 L360.2,309.0 L358.4,310.2 L356.6,311.5 L355.0,312.7 L352.9,314.4 L351.1,316.1 L349.3,318.0 L347.4,320.0 L345.9,321.8 L344.5,323.7 L343.8,324.7 L342.1,327.3 L341.0,329.1 L340.1,330.7 L339.1,332.8 L338.3,334.6 L337.5,336.5 L336.8,338.3 L336.2,340.1 L335.6,341.9 L335.2,343.8 L334.8,345.6 L334.4,347.4 L334.1,349.3 L333.9,351.1 L333.7,352.9 L333.6,354.7 L333.5,356.6 L333.5,358.4 L333.6,360.2 L333.7,362.1 L333.8,363.9 L334.0,365.7 L334.3,367.5 L334.6,369.2 L335.0,371.2 L335.5,373.0 L336.0,374.9 L336.5,376.4 L337.1,378.5 L337.8,380.3 L338.3,381.5 L339.3,384.0 L340.1,385.6 L341.1,387.7 L341.9,389.1 L343.2,391.3 L344.3,393.1 L345.6,395.0 L346.8,396.8 L348.2,398.6 L349.3,400.1 L351.0,402.3 L352.5,404.1 L354.0,405.9 L355.6,407.8 L356.6,408.9 L358.4,411.1 L360.1,413.3 L361.4,415.1 L362.7,416.9 L363.9,418.7 L364.8,420.6 L365.7,422.2 L366.6,424.2 L367.3,426.1 L367.9,427.9 L368.4,429.7 L368.9,431.5 L369.4,433.4 L369.7,435.2 L370.0,437.0 L370.3,438.9 L370.5,440.7 L370.8,442.5 L371.0,444.3 L371.2,446.2 L371.3,448.0 L371.4,449.8 L371.5,451.7 L371.6,453.5 L371.6,455.3 L371.7,457.1 L371.7,459.0 L371.8,460.8 L371.8,462.6 L371.8,464.5 L371.8,466.3 L371.8,468.1 L371.7,469.9 L371.7,471.8 L371.6,473.6 L371.6,475.4 L371.5,477.3 L371.4,479.1 L371.3,480.9 L371.1,482.7 L371.0,484.6 L370.8,486.4 L370.6,488.2 L370.3,490.1 L370.1,491.9 L369.8,493.7 L369.5,495.5 L369.1,497.4 L368.7,499.2 L368.2,501.0 L367.7,502.9 L367.1,504.7 L366.5,506.5 L365.8,508.3 L364.9,510.2 L363.9,512.0 L362.8,513.8 L362.1,515.0 L360.3,517.5 L358.8,519.3 L357.2,521.1 L355.5,523.0 L353.8,524.8 L352.9,525.7 L352.0,526.6 L351.1,527.6 L349.3,529.5 L347.4,531.4 L345.6,533.4 L343.8,535.4 L341.9,537.6 L340.5,539.4 L339.0,541.3 L338.3,542.3 L336.5,544.9 L335.2,546.7 L334.0,548.6 L333.0,550.4 L331.9,552.2 L331.0,554.1 L330.1,555.9 L329.2,557.7 L328.4,559.5 L327.7,561.4 L327.0,563.2 L326.4,565.0 L325.8,566.9 L325.5,568.2 L324.8,570.5 L324.4,572.3 L324.1,574.2 L323.7,576.0 L323.5,577.8 L323.2,579.7 L323.0,581.5 L322.9,583.3 L322.8,585.1 L322.7,587.0 L322.7,588.8 L322.8,590.6 L322.9,592.5 L323.0,594.3 L323.2,596.1 L323.4,597.9 L323.7,599.5 L324.0,601.6 L324.4,603.4 L324.8,605.3 L325.3,607.1 L325.8,608.9 L326.3,610.7 L327.0,612.6 L327.6,614.4 L328.4,616.2 L329.1,618.0 L330.0,619.9 L330.9,621.7 L331.8,623.5 L332.8,625.3 L333.9,627.2 L334.6,628.3 L336.3,630.9 L337.5,632.7 L338.3,633.7 L340.1,636.1 L341.8,638.2 L343.3,640.0 L344.9,641.8 L346.6,643.7 L347.4,644.6 L348.3,645.5 L349.3,646.5 L351.1,648.4 L352.9,650.3 L354.7,652.2 L356.6,654.1 L358.4,656.2 L360.1,658.3 L361.5,660.1 L362.7,661.9 L363.8,663.8 L364.8,665.6 L365.7,667.4 L366.4,669.3 L367.1,671.1 L367.5,672.3 L368.2,674.7 L368.7,676.6 L369.1,678.4 L369.5,680.2 L369.8,682.1 L370.1,683.9 L370.3,685.7 L370.6,687.5 L370.8,689.4 L371.0,691.2 L371.2,693.0 L371.3,694.9 L371.4,696.7 L371.5,698.5 L371.6,700.3 L371.6,702.2 L371.7,704.0 L371.8,705.8 L371.8,707.7 L371.8,709.5 L371.8,711.3 L371.8,713.1 L371.8,715.0 L371.8,716.8 L371.7,718.6 L371.7,720.5 L371.6,722.3 L371.5,724.1 L371.4,725.9 L371.3,727.8 L371.2,729.6 L371.0,731.4 L370.8,733.3 L370.6,735.1 L370.4,736.9 L370.1,738.7 L369.8,740.6 L369.4,742.4 L369.0,744.2 L368.5,746.1 L368.0,747.9 L367.5,749.4 L366.7,751.5 L365.9,753.4 L365.0,755.2 L364.1,757.0 L362.9,758.9 L362.1,760.2 L360.4,762.5 L358.9,764.3 L357.4,766.2 L356.6,767.2 L354.7,769.3 L352.9,771.5 L351.3,773.5 L349.8,775.3 L348.4,777.1 L347.4,778.5 L345.8,780.8 L344.5,782.6 L343.8,783.9 L342.3,786.3 L341.3,788.1 L340.4,789.9 L339.5,791.8 L338.7,793.6 L337.9,795.4 L337.3,797.3 L336.6,799.1 L336.1,800.9 L335.6,802.7 L335.1,804.6 L334.7,806.4 L334.4,808.2 L334.1,810.1 L333.9,811.9 L333.7,813.7 L333.6,815.5 L333.6,817.4 L333.6,819.2 L333.6,821.0 L333.7,822.9 L333.9,824.7 L334.1,826.5 L334.4,828.3 L334.8,830.2 L335.2,832.0 L335.6,833.8 L336.2,835.7 L336.8,837.5 L337.4,839.3 L338.2,841.1 L339.0,843.0 L339.9,844.8 L340.9,846.6 L341.9,848.4 L343.1,850.3 L344.4,852.1 L345.6,853.7 L347.3,855.8 L348.9,857.6 L350.7,859.4 L352.7,861.3 L354.7,863.0 L356.6,864.5 L358.4,865.8 L359.9,866.7 L362.1,868.1 L363.9,869.1 L365.7,870.0 L367.5,870.9 L369.4,871.6 L371.0,872.2 L373.0,873.0 L374.9,873.5 L376.7,874.0 L378.5,874.4 L380.3,874.8 L382.2,875.1 L384.0,875.3 L385.8,875.5 L387.7,875.6 L389.5,875.7 L391.3,875.7 L393.1,875.6 L395.0,875.5 L396.8,875.4 L398.6,875.1 L400.5,874.8 L402.3,874.5 L404.0,874.1 L405.9,873.6 L407.8,873.0 L409.6,872.4 L411.4,871.7 L413.3,871.0 L414.5,870.4 L416.9,869.2 L418.1,868.6 L420.6,867.1 L422.4,866.0 L423.9,864.9 L426.1,863.3 L427.9,861.8 L429.7,860.2 L431.5,858.4 L433.4,856.4 L435.2,854.3 L436.9,852.1 L438.2,850.3 L438.9,849.2 L440.4,846.6 L441.5,844.8 L442.4,843.0 L443.2,841.1 L444.0,839.3 L444.7,837.5 L445.4,835.7 L445.9,833.8 L446.4,832.0 L446.9,830.2 L447.2,828.3 L447.6,826.5 L447.8,824.7 L448.0,822.9 L448.2,821.0 L448.3,819.2 L448.3,817.4 L448.3,815.5 L448.2,813.7 L448.1,811.9 L447.9,810.1 L447.7,808.2 L447.4,806.4 L447.0,804.6 L446.6,802.7 L446.2,801.0 L445.7,799.1 L445.1,797.3 L444.4,795.4 L443.8,793.6 L443.0,791.8 L442.2,789.9 L441.3,788.1 L440.7,787.0 L439.3,784.5 L438.2,782.6 L437.0,780.9 L435.7,779.0 L434.4,777.1 L433.4,775.8 L431.5,773.5 L430.0,771.7 L428.5,769.8 L426.9,768.0 L426.1,767.1 L425.2,766.2 L424.2,765.0 L422.4,762.9 L420.6,760.7 L419.2,758.9 L417.9,757.0 L416.9,755.6 L415.7,753.4 L415.1,752.3 L414.0,749.7 L413.3,748.0 L412.6,746.1 L412.1,744.2 L411.6,742.4 L411.2,740.6 L410.9,738.7 L410.6,736.9 L410.3,735.1 L410.0,733.3 L409.8,731.4 L409.6,729.6 L409.5,727.8 L409.3,725.9 L409.2,724.1 L409.2,722.3 L409.1,720.5 L409.0,718.6 L409.0,716.8 L409.0,715.0 L409.0,713.1 L409.0,711.3 L409.0,709.5 L409.0,707.7 L409.1,705.8 L409.2,704.0 L409.2,702.2 L409.3,700.3 L409.4,698.5 L409.6,696.7 L409.7,694.9 L409.9,693.0 L410.2,691.2 L410.4,689.4 L410.7,687.5 L411.0,685.7 L411.3,683.9 L411.8,682.1 L412.2,680.2 L412.8,678.4 L413.3,676.8 L414.1,674.7 L414.9,672.9 L415.9,671.1 L416.9,669.4 L418.4,667.4 L420.0,665.6 L422.0,663.8 L424.2,662.0 L426.1,660.8 L427.3,660.1 L429.7,658.9 L431.1,658.3 L433.4,657.5 L435.2,656.9 L437.0,656.5 L438.9,656.2 L440.7,656.0 L442.5,655.9 L444.3,656.0 L446.2,656.1 L448.0,656.3 L449.8,656.7 L451.7,657.2 L453.5,657.7 L455.3,658.3 L457.1,659.0 L459.0,659.7 L460.8,660.5 L462.6,661.4 L463.8,661.9 L466.3,663.3 L468.1,664.3 L469.9,665.3 L471.8,666.5 L473.4,667.4 L475.4,668.8 L477.3,670.1 L478.7,671.1 L480.9,672.7 L482.7,674.2 L484.6,675.7 L485.5,676.6 L487.5,678.4 L489.3,680.2 L490.9,682.1 L491.9,683.2 L493.7,685.6 L495.0,687.5 L496.0,689.4 L497.1,691.2 L498.0,693.0 L498.8,694.9 L499.6,696.7 L500.4,698.5 L501.0,699.9 L502.0,702.2 L502.8,704.0 L503.6,705.8 L504.4,707.7 L505.3,709.5 L506.3,711.3 L507.3,713.1 L508.3,714.9 L509.5,716.8 L510.7,718.6 L512.0,720.3 L513.6,722.3 L515.1,724.1 L516.9,725.9 L518.8,727.8 L520.9,729.6 L523.0,731.2 L524.8,732.6 L525.9,733.3 L528.5,734.9 L530.3,735.9 L532.1,736.8 L533.9,737.7 L535.8,738.4 L537.6,739.1 L539.4,739.8 L541.3,740.3 L543.1,740.8 L544.9,741.3 L546.7,741.6 L548.6,742.0 L550.4,742.2 L552.0,742.4 L554.1,742.6 L555.9,742.8 L557.7,742.9 L559.5,743.0 L561.4,743.1 L563.2,743.1 L565.0,743.2 L566.9,743.2 L568.7,743.3 L570.5,743.4 L572.3,743.6 L574.2,743.8 L576.0,744.1 L577.8,744.5 L579.7,745.0 L581.5,745.5 L583.1,746.1 L585.1,746.9 L587.0,747.7 L588.8,748.6 L590.6,749.5 L592.5,750.6 L594.2,751.5 L596.1,752.8 L597.9,754.0 L599.8,755.2 L601.6,756.5 L603.4,757.8 L605.0,758.9 L607.1,760.4 L608.9,761.9 L610.7,763.3 L612.1,764.3 L614.4,766.1 L616.2,767.7 L618.1,769.2 L619.9,770.7 L621.0,771.7 L623.1,773.5 L625.2,775.3 L627.2,777.1 L629.0,778.9 L630.9,780.7 L632.7,782.5 L634.5,784.4 L636.2,786.3 L637.7,788.1 L639.2,789.9 L640.0,791.0 L641.8,793.6 L642.9,795.4 L643.7,796.8 L644.8,799.1 L645.5,800.7 L646.2,802.7 L646.8,804.6 L647.3,806.1 L647.8,808.2 L648.3,810.1 L648.7,811.9 L649.1,813.7 L649.5,815.5 L649.9,817.4 L650.3,819.2 L650.8,821.0 L651.3,822.9 L651.9,824.7 L652.5,826.5 L653.1,828.3 L653.8,830.2 L654.6,832.0 L655.4,833.8 L656.4,835.7 L657.3,837.5 L658.3,839.1 L659.6,841.1 L660.9,843.0 L661.9,844.3 L663.8,846.5 L665.5,848.5 L667.4,850.3 L669.3,852.0 L671.1,853.5 L672.9,854.8 L674.3,855.8 L676.6,857.2 L678.4,858.2 L680.2,859.1 L682.1,859.9 L683.9,860.7 L685.6,861.3 L687.5,861.9 L689.4,862.4 L691.2,862.8 L692.9,863.1 L694.9,863.4 L696.7,863.6 L698.5,863.7 L700.3,863.8 L702.2,863.8 L704.0,863.7 L705.8,863.6 L707.7,863.3 L709.2,863.1 L711.3,862.7 L713.1,862.3 L715.0,861.7 L716.4,861.3 L718.6,860.5 L720.5,859.7 L722.3,858.9 L724.1,857.9 L725.9,856.9 L727.7,855.8 L729.6,854.4 L731.4,853.0 L732.5,852.1 L734.5,850.3 L736.3,848.5 L737.9,846.6 L738.7,845.6 L740.6,843.2 L741.9,841.1 L743.0,839.3 L744.0,837.5 L744.9,835.7 L745.7,833.8 L746.4,832.0 L747.0,830.2 L747.5,828.3 L747.9,826.9 L748.4,824.7 L748.7,822.9 L748.9,821.0 L749.1,819.2 L749.2,817.4 L749.2,815.5 L749.2,813.7 L749.1,811.9 L748.9,810.1 L748.7,808.2 L748.3,806.4 L747.9,804.6 L747.5,802.7 L746.9,800.9 L746.3,799.1 L745.6,797.3 L744.8,795.4 L744.2,794.3 L742.9,791.8 L741.8,789.9 L740.6,788.1 L739.3,786.3 L737.8,784.5 L736.9,783.4 L735.1,781.5 L733.3,779.7 L731.4,778.1 L730.2,777.1 L727.8,775.4 L725.9,774.2 L724.8,773.5 L722.3,772.1 L720.5,771.2 L718.6,770.3 L717.3,769.8 L715.0,768.9 L713.1,768.3 L711.3,767.8 L709.5,767.3 L707.7,766.9 L705.8,766.5 L704.0,766.2 L702.2,765.9 L700.3,765.7 L698.5,765.5 L696.7,765.4 L694.9,765.3 L693.0,765.2 L691.2,765.2 L689.4,765.1 L687.5,765.1 L685.7,765.1 L683.9,765.0 L682.1,764.9 L680.2,764.8 L678.4,764.6 L676.8,764.3 L674.7,763.9 L672.9,763.5 L671.1,763.0 L669.7,762.5 L667.4,761.6 L665.6,760.9 L663.8,760.0 L661.9,759.0 L660.1,758.0 L658.4,757.0 L656.5,755.8 L654.6,754.6 L652.8,753.4 L651.0,752.1 L649.1,750.8 L647.6,749.7 L645.5,748.1 L643.7,746.7 L641.8,745.3 L640.5,744.2 L638.2,742.4 L636.3,740.9 L634.5,739.3 L632.7,737.8 L631.6,736.9 L629.5,735.1 L627.5,733.3 L625.4,731.4 L623.5,729.6 L621.7,727.9 L619.9,726.1 L618.1,724.2 L616.3,722.3 L614.7,720.5 L613.2,718.6 L611.8,716.8 L610.7,715.3 L609.3,713.1 L608.3,711.3 L607.3,709.5 L606.5,707.7 L605.7,705.8 L605.3,704.6 L604.5,702.2 L603.9,700.3 L603.4,698.5 L603.0,696.7 L602.5,694.9 L602.1,693.0 L601.6,691.3 L601.1,689.4 L600.6,687.5 L600.0,685.7 L599.4,683.9 L598.8,682.1 L598.0,680.2 L597.3,678.4 L596.4,676.6 L595.5,674.7 L594.5,672.9 L593.5,671.1 L592.5,669.5 L591.0,667.4 L589.6,665.6 L588.8,664.6 L587.0,662.5 L585.1,660.7 L583.3,659.0 L581.5,657.4 L580.2,656.5 L577.8,654.7 L576.0,653.6 L574.7,652.8 L572.3,651.5 L571.2,651.0 L568.7,649.8 L566.9,649.1 L565.0,648.5 L563.2,647.9 L561.4,647.4 L559.5,646.9 L557.7,646.5 L555.9,646.2 L554.1,645.9 L552.2,645.6 L550.6,645.5 L548.6,645.3 L546.7,645.2 L544.9,645.1 L543.1,645.1 L541.3,645.0 L539.4,645.0 L537.6,645.0 L535.8,645.0 L533.9,645.0 L532.1,645.0 L530.3,644.9 L528.5,644.8 L526.6,644.7 L524.8,644.5 L523.0,644.2 L521.1,643.9 L519.3,643.4 L517.5,642.9 L515.7,642.3 L514.2,641.8 L512.0,640.9 L510.2,640.2 L508.3,639.3 L506.5,638.4 L504.7,637.4 L502.9,636.4 L501.0,635.3 L499.6,634.5 L497.4,633.1 L495.5,631.9 L494.0,630.9 L491.9,629.3 L490.1,627.9 L489.1,627.2 L486.8,625.4 L484.6,623.5 L482.7,621.8 L480.9,620.1 L479.1,618.1 L477.5,616.2 L476.0,614.4 L474.8,612.6 L473.6,610.7 L472.7,608.9 L471.8,607.1 L471.1,605.3 L470.5,603.4 L470.0,601.6 L469.6,599.8 L469.3,597.9 L469.0,596.1 L468.8,594.3 L468.6,592.5 L468.5,590.6 L468.4,588.8 L468.3,587.0 L468.3,585.1 L468.3,583.3 L468.4,581.5 L468.5,579.7 L468.6,577.8 L468.8,576.0 L469.0,574.2 L469.4,572.3 L469.7,570.5 L470.2,568.7 L470.8,566.9 L471.6,565.0 L472.4,563.2 L473.4,561.4 L474.5,559.5 L475.4,558.2 L477.1,555.9 L478.7,554.1 L480.3,552.2 L482.1,550.4 L484.0,548.6 L486.0,546.7 L488.1,544.9 L490.1,543.4 L491.9,541.9 L493.7,540.6 L495.2,539.4 L497.4,537.9 L499.2,536.7 L500.5,535.8 L502.9,534.3 L504.7,533.2 L506.4,532.1 L508.3,531.1 L509.8,530.3 L512.0,529.2 L513.6,528.5 L515.7,527.6 L517.5,526.9 L519.3,526.3 L521.1,525.7 L523.0,525.2 L524.8,524.8 L526.6,524.5 L528.5,524.3 L530.3,524.1 L532.1,523.9 L533.9,523.8 L535.8,523.8 L537.6,523.7 L539.4,523.7 L541.3,523.6 L543.1,523.5 L544.9,523.5 L546.7,523.4 L548.6,523.2 L550.4,523.1 L552.2,522.9 L554.1,522.6 L555.9,522.3 L557.7,522.0 L559.5,521.6 L561.1,521.1 L563.2,520.6 L565.0,520.0 L566.8,519.3 L568.7,518.6 L570.5,517.8 L572.3,516.9 L574.2,515.9 L576.0,514.9 L577.6,513.8 L579.7,512.4 L581.5,511.0 L582.5,510.2 L584.6,508.3 L586.4,506.5 L588.1,504.7 L589.6,502.9 L590.6,501.6 L592.3,499.2 L593.5,497.4 L594.3,496.0 L595.6,493.7 L596.5,491.9 L597.4,490.1 L597.9,488.7 L598.9,486.4 L599.5,484.6 L600.1,482.7 L600.7,480.9 L601.2,479.1 L601.6,477.7 L602.2,475.4 L602.7,473.6 L603.1,471.8 L603.6,469.9 L604.1,468.1 L604.7,466.3 L605.3,464.5 L606.0,462.6 L606.7,460.8 L607.6,459.0 L608.6,457.1 L609.7,455.3 L610.7,453.6 L612.2,451.7 L613.6,449.8 L614.4,448.9 L616.2,446.8 L618.1,444.8 L619.9,442.9 L621.7,441.1 L623.5,439.4 L625.4,437.7 L627.2,436.1 L628.1,435.2 L630.2,433.4 L632.4,431.5 L634.5,429.8 L636.3,428.3 L638.2,426.9 L639.2,426.1 L641.5,424.2 L643.7,422.6 L645.5,421.3 L646.5,420.6 L649.1,418.7 L651.0,417.5 L652.8,416.4 L654.6,415.2 L656.5,414.2 L658.1,413.3 L660.1,412.2 L661.7,411.4 L663.8,410.6 L665.6,409.9 L667.4,409.3 L669.3,408.8 L671.1,408.4 L672.9,408.0 L674.5,407.8 L676.6,407.6 L678.4,407.4 L680.2,407.3 L682.1,407.3 L683.9,407.2 L685.7,407.2 L687.5,407.2 L689.4,407.1 L691.2,407.0 L693.0,406.9 L694.9,406.8 L696.7,406.6 L698.5,406.4 L700.3,406.1 L702.2,405.8 L704.0,405.4 L705.8,405.0 L707.7,404.5 L708.9,404.1 L711.3,403.4 L713.1,402.7 L715.0,401.9 L716.8,401.1 L718.0,400.5 L720.5,399.1 L722.3,398.0 L724.1,396.8 L725.9,395.5 L727.8,394.1 L728.8,393.1 L730.8,391.3 L732.6,389.5 L734.2,387.7 L735.1,386.6 L736.9,384.1 L738.2,382.2 L739.2,380.3 L740.2,378.5 L741.1,376.7 L741.9,374.9 L742.4,373.5 L743.2,371.2 L743.8,369.4 L744.2,367.5 L744.6,365.7 L744.9,363.9 L745.2,362.1 L745.4,360.2 L745.5,358.4 L745.5,356.6 L745.5,354.7 L745.4,352.9 L745.2,351.1 L744.9,349.3 L744.6,347.4 L744.2,345.7 L743.8,343.8 L743.2,341.9 L742.6,340.1 L741.9,338.3 L741.1,336.5 L740.6,335.4 L739.2,332.8 L738.1,331.0 L736.9,329.1 L735.6,327.3 L734.1,325.5 L733.3,324.5 L731.4,322.5 L729.6,320.8 L728.7,320.0 L727.8,319.2 L726.4,318.2 L724.1,316.5 L722.3,315.3 L720.8,314.5 L718.6,313.3 L717.2,312.7 L715.0,311.7 L713.1,311.0 L711.3,310.4 L709.5,309.9 L707.7,309.5 L705.8,309.1 L704.0,308.8 L702.2,308.6 L700.3,308.4 L698.5,308.4 L696.7,308.3 L694.9,308.4 L693.0,308.5 L691.2,308.7 L689.4,309.0 L687.5,309.3 L685.7,309.7 L683.9,310.2 L682.1,310.8 L680.2,311.4 L678.4,312.1 L677.2,312.7 L674.7,313.8 L673.5,314.5 L671.1,316.0 L669.3,317.2 L667.9,318.2 L665.6,320.0 L663.8,321.6 L661.9,323.4 L660.1,325.3 L658.4,327.3 L657.0,329.1 L655.7,331.0 L654.6,332.7 L653.4,334.6 L652.8,335.8 L651.5,338.3 L651.0,339.5 L649.9,341.9 L649.2,343.8 L648.5,345.6 L647.9,347.4 L647.4,349.3 L646.8,351.1 L646.4,352.9 L645.9,354.7 L645.5,356.6 L645.1,358.4 L644.7,360.2 L644.2,362.1 L643.8,363.9 L643.3,365.7 L642.8,367.5 L642.2,369.4 L641.5,371.2 L640.7,373.0 L640.0,374.4 L638.7,376.7 L637.6,378.5 L636.4,380.3 L635.0,382.2 L633.5,384.0 L632.7,384.9 L631.9,385.8 L630.9,387.0 L629.0,388.9 L627.2,390.7 L625.4,392.5 L623.5,394.2 L621.7,395.9 L620.7,396.8 L618.6,398.6 L616.5,400.5 L614.4,402.2 L612.6,403.6 L610.7,405.1 L609.7,405.9 L607.3,407.8 L605.3,409.3 L603.4,410.6 L602.3,411.4 L599.8,413.2 L597.9,414.4 L596.9,415.1 L594.3,416.8 L592.5,417.8 L590.8,418.7 L588.8,419.8 L587.2,420.6 L585.1,421.5 L583.3,422.2 L581.5,422.8 L579.7,423.4 L577.8,423.8 L576.0,424.2 L574.2,424.5 L572.3,424.7 L570.5,424.9 L568.7,425.0 L566.9,425.0 L565.0,425.1 L563.2,425.2 L561.4,425.2 L559.5,425.3 L557.7,425.4 L555.9,425.5 L554.1,425.7 L552.2,425.9 L550.7,426.1 L548.6,426.4 L546.7,426.7 L544.9,427.1 L543.1,427.5 L541.7,427.9 L539.4,428.5 L537.6,429.2 L536.2,429.7 L533.9,430.6 L532.1,431.5 L530.3,432.4 L528.6,433.4 L526.6,434.5 L524.8,435.8 L523.1,437.0 L521.1,438.5 L519.3,440.1 L517.5,441.8 L515.7,443.7 L513.8,445.8 L512.1,448.0 L510.8,449.8 L509.5,451.7 L508.4,453.5 L507.4,455.3 L506.5,457.0 L505.5,459.0 L504.7,460.8 L503.8,462.6 L503.1,464.5 L502.4,466.3 L501.7,468.1 L501.0,469.8 L500.3,471.8 L499.6,473.6 L498.9,475.4 L498.1,477.3 L497.4,478.9 L496.4,480.9 L495.5,482.5 L494.3,484.6 L493.0,486.4 L491.9,488.0 L490.2,490.1 L488.6,491.9 L486.8,493.7 L484.9,495.5 L482.8,497.4 L480.9,499.0 L479.1,500.4 L477.3,501.8 L475.9,502.9 L473.6,504.5 L471.8,505.7 L470.6,506.5 L468.1,508.1 L466.3,509.2 L464.7,510.2 L462.6,511.3 L461.4,512.0 L459.0,513.2 L457.7,513.8 L455.3,514.9 L453.5,515.7 L451.7,516.3 L449.8,516.9 L448.0,517.4 L446.2,517.8 L444.3,518.1 L442.5,518.3 L440.7,518.4 L438.9,518.4 L437.0,518.2 L435.2,517.9 L433.4,517.5 L431.5,517.0 L429.7,516.3 L428.2,515.7 L426.1,514.5 L424.9,513.8 L422.4,512.1 L420.6,510.5 L418.7,508.6 L417.1,506.5 L416.0,504.7 L415.1,503.1 L414.2,501.0 L413.4,499.2 L412.8,497.4 L412.3,495.5 L411.8,493.7 L411.4,492.2 L411.0,490.1 L410.8,488.2 L410.5,486.4 L410.2,484.6 L410.0,482.7 L409.8,480.9 L409.6,479.1 L409.5,477.3 L409.4,475.4 L409.3,473.6 L409.2,471.8 L409.1,469.9 L409.1,468.1 L409.1,466.3 L409.0,464.5 L409.0,462.6 L409.1,460.8 L409.1,459.0 L409.1,457.1 L409.2,455.3 L409.2,453.5 L409.3,451.7 L409.4,449.8 L409.6,448.0 L409.7,446.2 L409.9,444.3 L410.2,442.5 L410.4,440.7 L410.7,438.9 L411.0,437.0 L411.4,435.2 L411.8,433.4 L412.3,431.5 L412.8,429.7 L413.3,428.4 L414.2,426.1 L415.0,424.2 L416.0,422.4 L416.9,420.8 L418.3,418.7 L419.6,416.9 L420.6,415.6 L422.4,413.4 L424.1,411.4 L425.7,409.6 L427.4,407.8 L429.0,405.9 L430.6,404.1 L431.5,402.9 L433.4,400.6 L434.9,398.6 L436.2,396.8 L437.0,395.6 L438.6,393.1 L439.7,391.3 L440.7,389.6 L441.7,387.7 L442.5,385.9 L443.4,384.0 L444.1,382.2 L444.8,380.3 L445.4,378.5 L446.0,376.7 L446.5,374.9 L446.9,373.0 L447.3,371.2 L447.7,369.4 L447.9,367.5 L448.2,365.7 L448.3,363.9 L448.4,362.1 L448.5,360.2 L448.5,358.4 L448.5,356.6 L448.4,354.7 L448.2,352.9 L448.0,351.3 L447.7,349.3 L447.4,347.4 L447.0,345.6 L446.5,343.8 L446.2,342.5 L445.5,340.1 L444.8,338.3 L444.3,337.1 L443.3,334.6 L442.5,333.0 L441.5,331.0 L440.7,329.5 L439.4,327.3 L438.2,325.5 L437.0,323.9 L435.4,321.8 L433.9,320.0 L432.2,318.2 L430.4,316.3 L428.4,314.5 L426.2,312.7 L424.2,311.2 L422.4,309.9 L421.0,309.0 L418.7,307.7 L416.9,306.7 L415.1,305.8 L413.3,304.9 L411.4,304.2 L409.7,303.5 L407.8,302.9 L405.9,302.3 L404.1,301.9 L402.3,301.5 L400.5,301.1 L398.6,300.8 L396.8,300.6 L395.0,300.4 L393.1,300.3 L391.3,300.2 L389.5,300.2 L387.7,300.3 L385.8,300.4 L384.0,300.6 L382.2,300.8 L380.3,301.2 Z"/>
</svg>
